<?xml version="1.0" standalone="no"?>
<!DOCTYPE svg PUBLIC "-//W3C//DTD SVG 20010904//EN"
 "http://www.w3.org/TR/2001/REC-SVG-20010904/DTD/svg10.dtd">
<svg version="1.0" xmlns="http://www.w3.org/2000/svg"
 width="230.000000pt" height="230.000000pt" viewBox="0 0 230.000000 230.000000"
 preserveAspectRatio="xMidYMid meet">
<metadata>
Created by potrace 1.11, written by Peter Selinger 2001-2013
</metadata>
<g transform="translate(0.000000,230.000000) scale(0.100000,-0.100000)"
fill="#000000" stroke="none">
<path d="M1049 2296 c-2 -2 -26 -7 -54 -10 -27 -3 -82 -14 -120 -25 -424 -119
-724 -514 -724 -950 1 -467 296 -855 744 -977 87 -24 119 -28 245 -28 260 -1
439 61 645 224 149 119 288 339 336 530 51 206 26 458 -66 657 -136 295 -401
501 -730 568 -36 8 -270 17 -276 11z m269 -83 c296 -61 530 -238 660 -498 114
-228 131 -472 51 -715 -94 -285 -348 -521 -648 -602 -112 -30 -354 -30 -466 0
-339 92 -606 374 -678 717 -15 70 -17 308 -3 366 62 268 216 482 443 618 90
53 234 106 333 121 82 12 232 9 308 -7z"/>
<path d="M1064 1966 c-17 -8 -40 -23 -50 -34 -11 -10 -37 -25 -59 -32 -111
-35 -186 -82 -276 -172 -63 -63 -69 -64 -106 -20 -6 8 -17 11 -23 7 -8 -5 -1
-18 19 -39 21 -22 29 -38 25 -49 -8 -23 -13 -22 -51 15 -48 46 -64 24 -18 -25
34 -36 42 -56 28 -71 -4 -3 -26 13 -50 36 -29 28 -46 39 -53 32 -7 -7 5 -25
35 -55 26 -26 45 -53 45 -66 0 -34 -12 -28 -65 28 -29 31 -53 48 -62 45 -11
-4 -6 -15 21 -43 82 -90 79 -82 81 -232 1 -113 5 -147 24 -200 36 -102 80
-171 163 -255 l78 -78 0 -60 0 -60 63 7 c68 8 72 9 63 23 -3 5 -26 8 -51 6
l-45 -5 0 36 c0 19 4 35 10 35 5 0 9 -3 9 -7 -6 -34 3 -43 39 -43 43 0 202
-39 199 -50 -1 -4 18 -29 42 -55 l45 -48 42 49 c23 27 42 53 41 58 -1 5 9 11
23 12 14 1 45 9 70 18 25 9 60 16 78 16 22 0 32 5 32 15 0 8 5 15 11 15 6 0 9
-10 7 -22 -2 -18 -10 -23 -43 -24 -62 -2 -65 -3 -65 -18 0 -10 16 -13 68 -12
l67 2 -1 47 c-2 45 0 48 47 83 221 162 313 464 221 726 l-20 55 89 83 c49 46
89 86 89 90 0 11 -81 -6 -165 -35 l-76 -27 -64 65 c-73 74 -152 125 -245 157
-36 13 -74 31 -85 40 -57 49 -138 63 -201 36z m-129 -166 c-26 -82 -24 -184 5
-238 25 -47 42 -65 113 -126 l58 -48 -3 -159 c-2 -87 -5 -159 -8 -159 -3 0
-58 51 -123 114 l-119 113 12 42 c18 67 1 98 -102 195 l-91 85 26 35 c35 45
101 99 168 136 64 35 72 36 64 10z m501 -25 c23 -14 68 -50 100 -81 l59 -56
-30 -21 c-16 -12 -78 -69 -138 -127 -76 -74 -106 -109 -101 -120 15 -34 15
-79 0 -108 -16 -31 -133 -152 -147 -152 -4 0 -7 61 -8 136 l-1 137 79 79 c103
104 115 129 107 227 -3 42 -9 88 -12 104 -6 27 -6 27 22 17 16 -6 48 -22 70
-35z m-430 -83 c2 -66 28 -128 78 -181 30 -33 30 -33 6 -26 -36 9 -98 81 -110
126 -10 35 -7 77 6 122 10 34 19 16 20 -41z m-227 -258 c-10 -12 -22 -4 -76
49 -55 54 -64 68 -58 87 7 21 12 18 77 -50 56 -58 67 -74 57 -86z m-95 17 c38
-39 54 -61 46 -66 -7 -4 -23 4 -38 18 -15 13 -39 36 -54 49 -26 24 -38 58 -20
58 4 0 34 -26 66 -59z m1012 -50 c49 -219 -44 -451 -233 -582 l-43 -30 -37 20
c-41 22 -203 170 -203 187 0 14 76 95 292 311 129 129 195 188 200 180 4 -7
15 -45 24 -86z m-1030 -31 c17 -19 20 -28 11 -38 -15 -19 -103 69 -93 94 6 15
9 15 33 -7 15 -13 37 -35 49 -49z m-27 -84 c29 -38 79 -49 158 -31 17 4 44
-20 140 -120 65 -69 119 -129 121 -134 4 -13 -175 -180 -201 -186 -32 -8 -45
-1 -109 61 -111 106 -174 247 -177 398 l-2 81 28 -25 c15 -14 34 -33 42 -44z
m458 -456 c-2 -50 -8 -95 -13 -100 -10 -10 -102 3 -132 19 -9 5 11 33 64 89
42 45 79 82 81 82 2 0 2 -41 0 -90z m192 -90 c-8 -4 -32 -11 -53 -14 -49 -9
-56 0 -56 84 l0 65 62 -64 c47 -48 59 -65 47 -71z m-174 -110 c23 -25 33 -25
54 1 10 12 22 20 28 18 6 -2 -3 -18 -20 -36 l-32 -32 -37 35 c-21 19 -32 34
-24 34 7 0 21 -9 31 -20z"/>
<path d="M2078 284 c-3 -3 -4 -19 -1 -35 4 -27 2 -29 -20 -25 -14 2 -35 -2
-46 -11 -19 -12 -22 -23 -20 -70 2 -31 9 -61 16 -69 16 -16 59 -19 68 -5 3 5
-8 9 -25 9 -17 -1 -32 1 -35 4 -8 7 -9 104 -1 116 4 7 18 12 31 12 27 0 34
-15 39 -93 6 -95 16 -57 13 51 -4 108 -7 129 -19 116z"/>
<path d="M1593 272 l-52 -3 2 -110 c1 -60 5 -109 9 -109 8 0 11 27 8 73 -1 25
1 27 39 27 22 0 43 5 46 10 4 6 -12 10 -42 10 l-48 0 1 35 c1 20 4 38 7 41 3
3 27 7 53 10 83 7 64 21 -23 16z"/>
<path d="M1097 253 c-3 -4 -8 -24 -11 -44 -3 -20 -7 -42 -10 -50 -2 -8 -7 -27
-11 -43 -5 -24 -18 -29 -21 -8 0 4 -3 14 -6 22 -3 8 -12 36 -18 63 -7 26 -16
50 -20 52 -4 3 -13 -26 -20 -63 -21 -112 -24 -113 -54 -18 -16 47 -32 86 -36
86 -4 0 1 -28 12 -62 11 -35 27 -88 37 -118 l17 -55 18 75 c27 116 31 122 42
64 3 -15 7 -31 10 -36 3 -5 8 -20 10 -35 3 -15 9 -34 14 -42 10 -18 13 -12 24
44 4 17 8 35 9 40 21 69 31 155 14 128z"/>
<path d="M830 235 c0 -8 5 -15 10 -15 6 0 10 7 10 15 0 8 -4 15 -10 15 -5 0
-10 -7 -10 -15z"/>
<path d="M675 180 c0 -33 2 -60 5 -60 3 0 5 -15 4 -34 -2 -45 20 -76 52 -74
41 4 55 28 51 89 -2 46 -7 56 -30 69 -22 12 -31 13 -46 3 -19 -12 -20 -10 -17
27 2 24 -1 40 -8 40 -7 0 -11 -23 -11 -60z m95 -60 c9 -52 -2 -84 -29 -88 -32
-5 -42 8 -44 59 -2 55 8 71 41 67 22 -2 28 -9 32 -38z"/>
<path d="M325 125 c4 -133 3 -130 12 -121 5 4 7 38 5 74 l-2 67 20 -42 c11
-23 24 -53 30 -67 8 -23 32 -38 29 -18 -1 4 -1 9 1 12 1 3 3 15 5 26 7 36 24
74 33 74 5 0 9 -17 9 -37 0 -64 3 -83 11 -83 4 0 6 33 5 73 -2 39 -4 86 -3
104 0 17 -4 34 -10 38 -5 3 -10 -1 -10 -10 0 -9 -12 -50 -26 -91 l-27 -75 -18
31 c-11 17 -19 36 -20 43 0 6 -11 35 -23 62 l-23 50 2 -110z"/>
<path d="M1722 211 c-29 -19 -37 -116 -12 -146 16 -19 64 -19 80 0 7 8 13 38
14 65 1 40 -3 55 -19 69 -20 18 -46 23 -63 12z m57 -29 c9 -18 9 -97 -1 -107
-14 -14 -49 -13 -57 3 -12 25 -12 93 0 109 16 19 47 16 58 -5z"/>
<path d="M1861 211 c-23 -15 -23 -119 0 -142 21 -21 66 -19 81 3 11 17 7 109
-6 131 -11 18 -52 23 -75 8z m66 -27 c9 -25 10 -89 0 -101 -13 -18 -54 -16
-61 3 -10 26 -7 99 5 111 13 13 49 5 56 -13z"/>
<path d="M1419 203 c-9 -2 -21 -14 -26 -26 -12 -29 -8 -104 8 -123 14 -17 61
-18 77 -2 15 15 16 38 1 38 -5 0 -8 -4 -5 -9 8 -13 -16 -29 -37 -25 -24 3 -25
4 -31 36 -4 26 -2 27 42 30 44 3 47 5 44 28 -7 44 -31 62 -73 53z m50 -31 c14
-26 1 -39 -36 -40 -25 0 -33 4 -33 17 0 39 51 56 69 23z"/>
<path d="M1180 193 c-17 -4 -45 -43 -31 -43 5 0 14 7 21 15 15 18 44 19 58 3
14 -18 1 -44 -23 -43 -28 0 -55 -24 -55 -50 0 -34 23 -48 68 -40 36 6 38 8 36
38 -1 18 -3 46 -3 62 -2 49 -26 69 -71 58z m58 -105 c-2 -30 -14 -45 -36 -43
-56 4 -49 65 8 65 23 0 29 -4 28 -22z"/>
<path d="M1320 191 c-8 -6 -17 -8 -21 -5 -9 5 -5 -143 4 -152 4 -4 7 25 7 64
0 40 4 72 8 72 5 0 17 7 28 15 14 11 15 14 4 15 -8 0 -22 -4 -30 -9z"/>
<path d="M550 160 c-14 -14 -18 -30 -16 -73 4 -68 10 -77 48 -77 44 0 68 24
59 58 -4 15 -7 39 -6 55 3 46 -51 71 -85 37z m65 -12 c20 -61 8 -129 -22 -123
-10 2 -24 4 -30 4 -14 1 -18 85 -7 115 7 19 53 21 59 4z"/>
<path d="M835 108 c4 -95 4 -94 13 -82 10 12 3 154 -8 154 -4 0 -6 -33 -5 -72z"/>
</g>
</svg>
